<svg height="32" viewBox="0 0 158.289062 32" width="158.289062" xmlns="http://www.w3.org/2000/svg"><g fill="#0a0a0a"><g transform="translate(41 9.1094)"><path d="m4.9765625 12.15625c2.3984375 0 4.1796875-1.3359375 4.5546875-3.3984375v-.015625h-1.421875l-.015625.015625c-.3515625 1.296875-1.546875 2.1015625-3.1171875 2.1015625-2.171875 0-3.53125-1.7734375-3.53125-4.59375v-.015625c0-2.8203125 1.359375-4.6015625 3.5234375-4.6015625 1.5546875 0 2.7578125.9140625 3.1328125 2.359375l.0078125.015625h1.4140625l.0078125-.015625c-.3359375-2.1640625-2.1875-3.65625-4.5625-3.65625-3.0625 0-4.96875 2.265625-4.96875 5.8984375v.015625c0 3.625 1.9140625 5.890625 4.9765625 5.890625z"/><path d="m15.1796875 12.0390625c2.3984375 0 3.8828125-1.65625 3.8828125-4.3515625v-.015625c0-2.703125-1.484375-4.3515625-3.8828125-4.3515625s-3.8828125 1.6484375-3.8828125 4.3515625v.015625c0 2.6953125 1.484375 4.3515625 3.8828125 4.3515625zm0-1.203125c-1.59375 0-2.4921875-1.1640625-2.4921875-3.1484375v-.015625c0-1.9921875.8984375-3.1484375 2.4921875-3.1484375s2.4921875 1.15625 2.4921875 3.1484375v.015625c0 1.984375-.8984375 3.1484375-2.4921875 3.1484375z"/><path d="m21.171875 11.890625h1.359375v-5.21875c0-1.1875.8359375-2.1484375 1.9375-2.1484375 1.0625 0 1.75.6484375 1.75 1.6484375v5.71875h1.359375v-5.4140625c0-1.0703125.7734375-1.953125 1.9453125-1.953125 1.1875 0 1.7578125.6171875 1.7578125 1.859375v5.5078125h1.359375v-5.8203125c0-1.765625-.9609375-2.75-2.6796875-2.75-1.1640625 0-2.125.5859375-2.578125 1.4765625h-.125c-.390625-.875-1.1875-1.4765625-2.328125-1.4765625-1.1015625 0-1.8984375.5234375-2.2734375 1.4296875h-.125v-1.28125h-1.359375z"/><path d="m35.09375 14.703125h1.359375v-4.140625h.125c.4609375.8984375 1.46875 1.4765625 2.625 1.4765625 2.140625 0 3.53125-1.7109375 3.53125-4.3515625v-.015625c0-2.625-1.3984375-4.3515625-3.53125-4.3515625-1.171875 0-2.109375.5546875-2.625 1.4921875h-.125v-1.34375h-1.359375zm3.796875-3.8671875c-1.53125 0-2.46875-1.203125-2.46875-3.1484375v-.015625c0-1.9453125.9375-3.1484375 2.46875-3.1484375 1.5390625 0 2.453125 1.1875 2.453125 3.1484375v.015625c0 1.9609375-.9140625 3.1484375-2.453125 3.1484375z"/><path d="m47.171875 12.0390625c1.1328125 0 2.015625-.4921875 2.546875-1.390625h.125v1.2421875h1.359375v-5.765625c0-1.75-1.1484375-2.8046875-3.203125-2.8046875-1.796875 0-3.078125.890625-3.296875 2.2109375l-.0078125.046875h1.359375l.0078125-.0234375c.21875-.65625.8828125-1.03125 1.890625-1.03125 1.2578125 0 1.890625.5625 1.890625 1.6015625v.765625l-2.4140625.1484375c-1.9609375.1171875-3.0703125.984375-3.0703125 2.484375v.015625c0 1.53125 1.2109375 2.5 2.8125 2.5zm-1.421875-2.53125v-.015625c0-.8359375.5625-1.2890625 1.84375-1.3671875l2.25-.140625v.765625c0 1.203125-1.0078125 2.109375-2.390625 2.109375-.9765625 0-1.703125-.5-1.703125-1.3515625z"/><path d="m53.6875 11.890625h1.359375v-4.984375c0-1.4765625.8515625-2.3828125 2.1953125-2.3828125s1.96875.7265625 1.96875 2.2421875v5.125h1.359375v-5.453125c0-2-1.0546875-3.1171875-2.9453125-3.1171875-1.2421875 0-2.03125.5234375-2.453125 1.4140625h-.125v-1.265625h-1.359375z"/><path d="m63.4296875 14.84375c1.4921875 0 2.1875-.546875 2.8828125-2.4375l3.2890625-8.9375h-1.4296875l-2.3046875 6.9296875h-.125l-2.3125-6.9296875h-1.453125l3.1171875 8.4296875-.15625.5c-.3046875.96875-.7734375 1.3203125-1.546875 1.3203125-.1875 0-.3984375-.0078125-.5625-.0390625v1.1171875c.1875.03125.421875.046875.6015625.046875z"/><path d="m71.5 11.890625h2.359375v-3.5546875h2.2890625c2.375 0 3.9609375-1.53125 3.9609375-3.8515625v-.015625c0-2.3203125-1.5859375-3.8515625-3.9609375-3.8515625h-4.6484375zm4.0703125-9.40625c1.3515625 0 2.1484375.7109375 2.1484375 1.9921875v.015625c0 1.28125-.796875 2-2.1484375 2h-1.7109375v-4.0078125z"/><path d="m85.640625 12.0703125c2.6484375 0 4.2421875-1.671875 4.2421875-4.4765625v-.015625c0-2.78125-1.6171875-4.4765625-4.2421875-4.4765625s-4.2421875 1.703125-4.2421875 4.4765625v.015625c0 2.796875 1.59375 4.4765625 4.2421875 4.4765625zm0-1.7890625c-1.21875 0-1.90625-.9921875-1.90625-2.6875v-.015625c0-1.6796875.6953125-2.6875 1.90625-2.6875 1.203125 0 1.90625 1.0078125 1.90625 2.6875v.015625c0 1.6953125-.6953125 2.6875-1.90625 2.6875z"/><path d="m91.734375 11.890625h2.28125v-4.8125c0-1.21875.8203125-1.9609375 2.1171875-1.9609375.3515625 0 .703125.0546875 1.046875.1328125v-1.9921875c-.2265625-.0625-.546875-.109375-.8515625-.109375-1.1171875 0-1.8984375.546875-2.171875 1.4765625h-.140625v-1.3359375h-2.28125z"/><path d="m102.460938 11.921875c.4375 0 .859374-.046875 1.140624-.1015625v-1.6953125c-.21875.0234375-.375.0390625-.671874.0390625-.773438 0-1.101563-.34375-1.101563-1.1171875v-4.0390625h1.773437v-1.71875h-1.773437v-2.0546875h-2.3046875v2.0546875h-1.328125v1.71875h1.328125v4.5625c0 1.671875.8437505 2.3515625 2.9375005 2.3515625z"/><path d="m107.835938 12.0234375c1.125 0 2.03125-.4765625 2.46875-1.2734375h.140624v1.140625h2.25v-5.875c0-1.8359375-1.289062-2.9140625-3.570312-2.9140625-2.164062 0-3.585938 1-3.765625 2.5078125l-.007813.0703125h2.109376l.015624-.03125c.179688-.5078125.703126-.796875 1.523438-.796875.9375 0 1.445312.421875 1.445312 1.1640625v.7109375l-2.078124.125c-2.140626.125-3.335938 1.03125-3.335938 2.578125v.015625c0 1.5625 1.164062 2.578125 2.804688 2.578125zm-.578126-2.71875v-.015625c0-.625.476563-.9921875 1.453126-1.0546875l1.734374-.109375v.6328125c0 .90625-.789062 1.6015625-1.84375 1.6015625-.789062 0-1.34375-.3984375-1.34375-1.0546875z"/><path d="m115.007812 11.890625h2.28125v-11.890625h-2.28125z"/></g><path d="m22 27c0 2.7614237-2.2385763 5-5 5h-12c-2.76142375 0-5-2.2385763-5-5v-12c0-2.7614237 2.23857625-5 5-5h3v2h-3c-1.65685425 0-3 1.3431458-3 3v12c0 1.6568542 1.34314575 3 3 3h12c1.6568542 0 3-1.3431458 3-3v-12c0-1.6568542-1.3431458-3-3-3h-3v-2h3c2.7614237 0 5 2.2385763 5 5zm5-27c2.7614237 0 5 2.23857625 5 5v12c0 2.7614237-2.2385763 5-5 5h-3v-2h3c1.6568542 0 3-1.3431458 3-3v-12c0-1.65685425-1.3431458-3-3-3h-12c-1.6568542 0-3 1.34314575-3 3v12c0 1.6568542 1.3431458 3 3 3h3v2h-3c-2.7614237 0-5-2.2385763-5-5v-12c0-2.76142375 2.2385763-5 5-5z"/></g></svg>